<svg fill="none" xmlns="http://www.w3.org/2000/svg" viewBox="0 0 68 30"><path d="M65.8227 17v2.9416H68v1.8029h-2.1773v4.8584c0 .4555.0837.7591.2512.911.1675.1518.5025.2277 1.0049.2277.1675 0 .328-.0063.4815-.019.1536-.0126.3001-.0316.4397-.0569v2.0876c-.2512.0379-.5304.0632-.8374.0759-.3071.0127-.6072.019-.9003.019-.4605 0-.9002-.0317-1.3189-.0949-.4048-.0506-.7676-.1582-1.0886-.3226-.3071-.1645-.5514-.3986-.7328-.7022-.1814-.3037-.2722-.7022-.2722-1.1957v-5.7883h-1.8004v-1.8029h1.8004V17h2.9729zM0 26.565h2.8263c0 .291.06281.544.18842.7591.13958.2024.31404.3732.52339.5124.20936.1265.44663.2214.71181.2847.27915.0632.56526.0949.85836.0949.20936 0 .42569-.019.649-.057.23728-.0506.44663-.1202.62807-.2087.1954-.1012.35591-.2278.48152-.3796.12561-.1645.18842-.3669.18842-.6073 0-.4049-.30008-.7085-.90023-.9109-.5862-.2025-1.40966-.4049-2.47039-.6073-.43268-.0886-.85837-.1898-1.27708-.3037-.40476-.1265-.76764-.2847-1.08865-.4744-.321013-.2025-.579218-.4492-.774618-.7402-.195393-.3036-.293097-.6706-.293097-1.1007 0-.6326.132596-1.1514.397781-1.5562.279137-.4049.642014-.7212 1.088654-.9489.44662-.2404.94907-.4049 1.50735-.4935.55829-.1012 1.13053-.1518 1.71672-.1518.5862 0 1.15146.0506 1.69579.1518.55828.1013 1.05375.2721 1.48642.5125.43267.2403.78857.563 1.06772.9678.2931.3922.46756.892.52339 1.4993H6.90874c-.04187-.5187-.2582-.8667-.649-1.0438-.3908-.1898-.85138-.2847-1.38175-.2847-.16748 0-.34892.0127-.54433.038-.1954.0126-.37684.0506-.54432.1139-.15353.0632-.28612.1581-.39778.2846-.11165.1139-.16748.272-.16748.4745 0 .2404.0977.4365.2931.5883.1954.1518.44662.2784.75368.3796.32101.0885.6839.1708 1.08865.2467.40475.0759.81649.1581 1.2352.2467.43267.0886.85138.1961 1.25613.3226.41872.1265.78858.2974 1.10959.5124.32101.2025.57922.4618.77462.7781.19539.3037.29305.6832.29305 1.1387 0 .6453-.1465 1.1893-.4396 1.6321-.27914.4302-.64901.7781-1.10959 1.0438-.46058.2657-.99095.4492-1.5911.5504-.5862.1139-1.18635.1708-1.80046.1708-.62807 0-1.24218-.0569-1.84234-.1708-.60015-.1139-1.13749-.3037-1.61204-.5693-.46057-.2657-.844396-.6137-1.151453-1.0438C.188421 27.7732.0279121 27.2229 0 26.565zM21.9218 19.9416v9.8117h-2.8263v-1.3664h-.0628c-.3768.5693-.8653.9805-1.4655 1.2335-.6001.2531-1.2142.3796-1.8423.3796-.7955 0-1.4515-.0949-1.9679-.2847-.5025-.1898-.9003-.4554-1.1934-.7971-.2931-.3542-.5024-.7781-.628-1.2715-.1117-.5061-.1675-1.0628-.1675-1.6701v-6.035h2.9728v5.5416c0 .8097.1396 1.417.4187 1.8219.2792.3922.7747.5883 1.4865.5883.8095 0 1.3957-.2151 1.7586-.6452.3629-.4428.5443-1.164.5443-2.1635v-5.1431h2.9728zM24.2619 19.9416v9.8117h2.9728v-5.6934c0-.4808.0768-.8667.2303-1.1577.1536-.3037.335-.5314.5444-.6832.2233-.1645.4466-.272.6699-.3226.2373-.0633.4257-.0949.5652-.0949.4746 0 .8305.0759 1.0678.2277.2512.1392.4257.329.5234.5693.1116.2404.1744.5061.1884.7971.0139.2784.0209.563.0209.854v5.5037h2.9729v-5.4657c0-.3037.0209-.601.0628-.892.0558-.3036.1535-.5693.2931-.7971.1535-.2403.3559-.4301.6071-.5693.2652-.1518.6071-.2277 1.0258-.2277.4188 0 .7467.0632.984.1897.2512.1266.4397.2974.5653.5125.1256.215.2024.4681.2303.7591.0279.291.0418.601.0418.9299v5.5606h2.9729v-6.3576c.0383-.1871.095-.3516.1699-.4935.1535-.3037.3349-.5314.5443-.6832.2233-.1645.4466-.272.6699-.3226.2373-.0633.4257-.0949.5653-.0949.4745 0 .8304.0759 1.0677.2277.2512.1392.4257.329.5234.5693.1116.2404.1744.5061.1884.7971.014.2784.0209.563.0209.854v5.5037h2.9729v-5.4657c0-.3037.0209-.601.0628-.892.0558-.3036.1535-.5693.2931-.7971.1535-.2403.3559-.4301.6071-.5693.2652-.1518.6072-.2277 1.0259-.2277.4187 0 .7467.0632.9839.1897.2513.1266.4397.2974.5653.5125.1256.215.2024.4681.2303.7591.0279.291.0419.601.0419.9299v5.5606h2.9728v-6.5664c0-.6326-.0977-1.1704-.2931-1.6132-.1954-.4554-.4675-.8224-.8165-1.1007-.3489-.2784-.7676-.4808-1.2561-.6073-.4885-.1265-1.0189-.1898-1.5911-.1898-.7537 0-1.4097.1645-1.968.4934-.5443.329-.9769.7086-1.298 1.1387-.2931-.6073-.7257-1.0311-1.298-1.2715-.5582-.2404-1.1793-.3606-1.8632-.3606-.7118 0-1.3469.1392-1.9052.4175-.5443.2784-1.0119.6706-1.4027 1.1767 0 0-.0665.0884-.1452.2179-.1921-.416-.4515-.7543-.7783-1.015-.3489-.2784-.7676-.4808-1.2561-.6073-.4885-.1265-1.0189-.1898-1.5911-.1898-.7537 0-1.4097.1645-1.968.4934-.5443.329-.977.7086-1.298 1.1387-.2931-.6073-.7257-1.0311-1.298-1.2715-.5583-.2404-1.1794-.3606-1.8633-.3606-.7118 0-1.3468.1392-1.9051.4175-.5443.2784-1.0119.6706-1.4027 1.1767h-.0418v-1.3285h-2.8054zM56.7406 19.9416v9.8117h2.9728v-9.8117h-2.9728z" fill="#484848"/><path d="M1.82856 7.46495l1.91209 7.25665 1.93994-7.25665h1.87497l1.94922 7.21365 2.03272-7.21365h1.6708l-2.8867 9.20835H8.58586L6.56238 9.54563l-1.9585 7.12767H2.86814L0 7.46495h1.82856zM18.9353 7.2586c.7054 0 1.3892.15476 2.0513.46428.6621.3038 1.1665.6993 1.513 1.18651.3341.46429.5569 1.00595.6683 1.62501.099.4242.1485 1.1005.1485 2.0291H16.03c.031.9343.2692 1.6852.7147 2.2526.4456.5618 1.1355.8426 2.0699.8426.8725 0 1.5687-.2665 2.0885-.7996.297-.3095.5074-.6677.6312-1.0747h1.6429c-.0433.3382-.1888.7165-.4363 1.1349-.2413.4127-.5136.7509-.8168 1.0146-.5074.4585-1.1355.768-1.8842.9285-.4023.0917-.8571.1376-1.3645.1376-1.2376 0-2.2865-.4156-3.1466-1.2467-.8601-.8369-1.2902-2.0062-1.2902-3.5079 0-1.4789.4332-2.6797 1.2995-3.60254.8663-.92284 1.9987-1.38426 3.3972-1.38426zm2.6639 4.0754c-.068-.6706-.2258-1.2066-.4733-1.60781-.458-.74515-1.2222-1.11772-2.2927-1.11772-.7673 0-1.4109.25793-1.9307.7738-.5198.51015-.7951 1.16073-.8261 1.95173h5.5228zM25.2471 4h1.6243v4.58267c.3651-.44136.8014-.77667 1.3088-1.00595.5074-.23501 1.0581-.35251 1.6522-.35251 1.2376 0 2.24.3955 3.0073 1.1865C33.6133 9.19599 34 10.3567 34 11.8929c0 1.4559-.3806 2.6653-1.1417 3.6283-.7611.9629-1.8162 1.4444-3.1652 1.4444-.7549 0-1.3923-.1691-1.912-.5073-.3094-.2006-.6405-.5216-.9932-.9629v1.1779h-1.5408V4zm4.3439 11.5985c.9035 0 1.578-.3324 2.0235-.9973.4517-.6649.6776-1.5419.6776-2.631 0-.9687-.2259-1.7711-.6776-2.40737-.4455-.63624-1.1045-.95436-1.977-.95436-.7612 0-1.4295.2608-2.005.7824-.5693.52161-.8539 1.38143-.8539 2.57933 0 .8656.1176 1.5677.3527 2.1065.4394 1.0146 1.2593 1.5218 2.4597 1.5218z" fill="#6D6D6D"/><path d="M47 0l-9 14.5h18L47 0z" fill="#11093F"/><path d="M44 2l-9 14.5h18L44 2z" fill="#5BC2CA"/><path d="M50 2l-9 14.5h18L50 2z" fill="#F2177F"/></svg>