<svg width="68" height="30" viewBox="0 0 68 30" fill="none" xmlns="http://www.w3.org/2000/svg">
<path d="M65.8227 17V19.9416H68V21.7445H65.8227V26.6029C65.8227 27.0584 65.9064 27.362 66.0739 27.5139C66.2414 27.6657 66.5764 27.7416 67.0788 27.7416C67.2463 27.7416 67.4068 27.7353 67.5603 27.7226C67.7139 27.71 67.8604 27.691 68 27.6657V29.7533C67.7488 29.7912 67.4696 29.8165 67.1626 29.8292C66.8555 29.8419 66.5554 29.8482 66.2623 29.8482C65.8018 29.8482 65.3621 29.8165 64.9434 29.7533C64.5386 29.7027 64.1758 29.5951 63.8548 29.4307C63.5477 29.2662 63.3034 29.0321 63.122 28.7285C62.9406 28.4248 62.8498 28.0263 62.8498 27.5328V21.7445H61.0494V19.9416H62.8498V17H65.8227Z" fill="#484848"/>
<path d="M0 26.565H2.8263C2.8263 26.856 2.88911 27.109 3.01472 27.3241C3.1543 27.5265 3.32876 27.6973 3.53811 27.8365C3.74747 27.963 3.98474 28.0579 4.24992 28.1212C4.52907 28.1844 4.81518 28.2161 5.10828 28.2161C5.31764 28.2161 5.53397 28.1971 5.75728 28.1591C5.99456 28.1085 6.20391 28.0389 6.38535 27.9504C6.58075 27.8492 6.74126 27.7226 6.86687 27.5708C6.99248 27.4063 7.05529 27.2039 7.05529 26.9635C7.05529 26.5586 6.75521 26.255 6.15506 26.0526C5.56886 25.8501 4.7454 25.6477 3.68467 25.4453C3.25199 25.3567 2.8263 25.2555 2.40759 25.1416C2.00283 25.0151 1.63995 24.8569 1.31894 24.6672C0.997927 24.4647 0.739722 24.218 0.544322 23.927C0.348929 23.6234 0.251225 23.2564 0.251225 22.8263C0.251225 22.1937 0.383821 21.6749 0.649006 21.2701C0.928143 20.8652 1.29102 20.5489 1.73766 20.3212C2.18428 20.0808 2.68673 19.9163 3.24501 19.8277C3.8033 19.7265 4.37554 19.6759 4.96173 19.6759C5.54793 19.6759 6.11319 19.7265 6.65752 19.8277C7.2158 19.929 7.71127 20.0998 8.14394 20.3402C8.57661 20.5805 8.93251 20.9032 9.21166 21.308C9.50476 21.7002 9.67922 22.2 9.73505 22.8073H6.90874C6.86687 22.2886 6.65054 21.9406 6.25974 21.7635C5.86894 21.5737 5.40836 21.4788 4.87799 21.4788C4.71051 21.4788 4.52907 21.4915 4.33366 21.5168C4.13826 21.5294 3.95682 21.5674 3.78934 21.6307C3.63581 21.6939 3.50322 21.7888 3.39156 21.9153C3.27991 22.0292 3.22408 22.1873 3.22408 22.3898C3.22408 22.6302 3.32178 22.8263 3.51718 22.9781C3.71258 23.1299 3.9638 23.2565 4.27086 23.3577C4.59187 23.4462 4.95476 23.5285 5.35951 23.6044C5.76426 23.6803 6.176 23.7625 6.59471 23.8511C7.02738 23.9397 7.44609 24.0472 7.85084 24.1737C8.26956 24.3002 8.63942 24.4711 8.96043 24.6861C9.28144 24.8886 9.53965 25.1479 9.73505 25.4642C9.93044 25.7679 10.0281 26.1474 10.0281 26.6029C10.0281 27.2482 9.8816 27.7922 9.5885 28.235C9.30936 28.6652 8.93949 29.0131 8.47891 29.2788C8.01833 29.5445 7.48796 29.728 6.88781 29.8292C6.30161 29.9431 5.70146 30 5.08735 30C4.45928 30 3.84517 29.9431 3.24501 29.8292C2.64486 29.7153 2.10752 29.5255 1.63297 29.2599C1.1724 28.9942 0.788574 28.6462 0.481517 28.2161C0.188421 27.7732 0.0279121 27.2229 0 26.565Z" fill="#484848"/>
<path d="M21.9218 19.9416V29.7533H19.0955V28.3869H19.0327C18.6559 28.9562 18.1674 29.3674 17.5672 29.6204C16.9671 29.8735 16.353 30 15.7249 30C14.9294 30 14.2734 29.9051 13.757 29.7153C13.2545 29.5255 12.8567 29.2599 12.5636 28.9182C12.2705 28.564 12.0612 28.1401 11.9356 27.6467C11.8239 27.1406 11.7681 26.5839 11.7681 25.9766V19.9416H14.7409V25.4832C14.7409 26.2929 14.8805 26.9002 15.1596 27.3051C15.4388 27.6973 15.9343 27.8934 16.6461 27.8934C17.4556 27.8934 18.0418 27.6783 18.4047 27.2482C18.7676 26.8054 18.949 26.0842 18.949 25.0847V19.9416H21.9218Z" fill="#484848"/>
<path d="M24.2619 19.9416V29.7533H27.2347V24.0599C27.2347 23.5791 27.3115 23.1932 27.465 22.9022C27.6186 22.5985 27.8 22.3708 28.0094 22.219C28.2327 22.0545 28.456 21.947 28.6793 21.8964C28.9166 21.8331 29.105 21.8015 29.2445 21.8015C29.7191 21.8015 30.075 21.8774 30.3123 22.0292C30.5635 22.1684 30.738 22.3582 30.8357 22.5985C30.9473 22.8389 31.0101 23.1046 31.0241 23.3956C31.038 23.674 31.045 23.9586 31.045 24.2496V29.7533H34.0179V24.2876C34.0179 23.9839 34.0388 23.6866 34.0807 23.3956C34.1365 23.092 34.2342 22.8263 34.3738 22.5985C34.5273 22.3582 34.7297 22.1684 34.9809 22.0292C35.2461 21.8774 35.588 21.8015 36.0067 21.8015C36.4255 21.8015 36.7534 21.8647 36.9907 21.9912C37.2419 22.1178 37.4304 22.2886 37.556 22.5037C37.6816 22.7187 37.7584 22.9718 37.7863 23.2628C37.8142 23.5538 37.8281 23.8638 37.8281 24.1927V29.7533H40.801V23.3957C40.8393 23.2086 40.896 23.0441 40.9709 22.9022C41.1244 22.5985 41.3058 22.3708 41.5152 22.219C41.7385 22.0545 41.9618 21.947 42.1851 21.8964C42.4224 21.8331 42.6108 21.8015 42.7504 21.8015C43.2249 21.8015 43.5808 21.8774 43.8181 22.0292C44.0693 22.1684 44.2438 22.3582 44.3415 22.5985C44.4531 22.8389 44.5159 23.1046 44.5299 23.3956C44.5439 23.674 44.5508 23.9586 44.5508 24.2496V29.7533H47.5237V24.2876C47.5237 23.9839 47.5446 23.6866 47.5865 23.3956C47.6423 23.092 47.74 22.8263 47.8796 22.5985C48.0331 22.3582 48.2355 22.1684 48.4867 22.0292C48.7519 21.8774 49.0939 21.8015 49.5126 21.8015C49.9313 21.8015 50.2593 21.8647 50.4965 21.9912C50.7478 22.1178 50.9362 22.2886 51.0618 22.5037C51.1874 22.7187 51.2642 22.9718 51.2921 23.2628C51.32 23.5538 51.334 23.8638 51.334 24.1927V29.7533H54.3068V23.1869C54.3068 22.5543 54.2091 22.0165 54.0137 21.5737C53.8183 21.1183 53.5462 20.7513 53.1972 20.473C52.8483 20.1946 52.4296 19.9922 51.9411 19.8657C51.4526 19.7392 50.9222 19.6759 50.35 19.6759C49.5963 19.6759 48.9403 19.8404 48.382 20.1693C47.8377 20.4983 47.4051 20.8779 47.084 21.308C46.7909 20.7007 46.3583 20.2769 45.786 20.0365C45.2278 19.7961 44.6067 19.6759 43.9228 19.6759C43.211 19.6759 42.5759 19.8151 42.0176 20.0934C41.4733 20.3718 41.0057 20.764 40.6149 21.2701C40.6149 21.2701 40.5484 21.3585 40.4697 21.488C40.2776 21.072 40.0182 20.7337 39.6914 20.473C39.3425 20.1946 38.9238 19.9922 38.4353 19.8657C37.9468 19.7392 37.4164 19.6759 36.8442 19.6759C36.0905 19.6759 35.4345 19.8404 34.8762 20.1693C34.3319 20.4983 33.8992 20.8779 33.5782 21.308C33.2851 20.7007 32.8525 20.2769 32.2802 20.0365C31.7219 19.7961 31.1008 19.6759 30.4169 19.6759C29.7051 19.6759 29.0701 19.8151 28.5118 20.0934C27.9675 20.3718 27.4999 20.764 27.1091 21.2701H27.0673V19.9416H24.2619Z" fill="#484848"/>
<path d="M56.7406 19.9416V29.7533H59.7134V19.9416H56.7406Z" fill="#484848"/>
<path d="M1.82856 7.46495L3.74065 14.7216L5.68059 7.46495H7.55556L9.50478 14.6786L11.5375 7.46495H13.2083L10.3216 16.6733H8.58586L6.56238 9.54563L4.60388 16.6733H2.86814L0 7.46495H1.82856Z" fill="#6D6D6D"/>
<path d="M18.9353 7.2586C19.6407 7.2586 20.3245 7.41336 20.9866 7.72288C21.6487 8.02668 22.1531 8.42218 22.4996 8.90939C22.8337 9.37368 23.0565 9.91534 23.1679 10.5344C23.2669 10.9586 23.3164 11.6349 23.3164 12.5635H16.03C16.061 13.4978 16.2992 14.2487 16.7447 14.8161C17.1903 15.3779 17.8802 15.6587 18.8146 15.6587C19.6871 15.6587 20.3833 15.3922 20.9031 14.8591C21.2001 14.5496 21.4105 14.1914 21.5343 13.7844H23.1772C23.1339 14.1226 22.9884 14.5009 22.7409 14.9193C22.4996 15.332 22.2273 15.6702 21.9241 15.9339C21.4167 16.3924 20.7886 16.7019 20.0399 16.8624C19.6376 16.9541 19.1828 17 18.6754 17C17.4378 17 16.3889 16.5844 15.5288 15.7533C14.6687 14.9164 14.2386 13.7471 14.2386 12.2454C14.2386 10.7665 14.6718 9.5657 15.5381 8.64286C16.4044 7.72002 17.5368 7.2586 18.9353 7.2586ZM21.5992 11.334C21.5312 10.6634 21.3734 10.1274 21.1259 9.72619C20.6679 8.98104 19.9037 8.60847 18.8332 8.60847C18.0659 8.60847 17.4223 8.8664 16.9025 9.38227C16.3827 9.89242 16.1074 10.543 16.0764 11.334H21.5992Z" fill="#6D6D6D"/>
<path d="M25.2471 4H26.8714V8.58267C27.2365 8.14131 27.6728 7.806 28.1802 7.57672C28.6876 7.34171 29.2383 7.22421 29.8324 7.22421C31.07 7.22421 32.0724 7.61971 32.8397 8.41071C33.6133 9.19599 34 10.3567 34 11.8929C34 13.3488 33.6194 14.5582 32.8583 15.5212C32.0972 16.4841 31.0421 16.9656 29.6931 16.9656C28.9382 16.9656 28.3008 16.7965 27.7811 16.4583C27.4717 16.2577 27.1406 15.9367 26.7879 15.4954V16.6733H25.2471V4ZM29.591 15.5985C30.4945 15.5985 31.169 15.2661 31.6145 14.6012C32.0662 13.9363 32.2921 13.0593 32.2921 11.9702C32.2921 11.0015 32.0662 10.1991 31.6145 9.56283C31.169 8.92659 30.51 8.60847 29.6375 8.60847C28.8763 8.60847 28.208 8.86927 27.6325 9.39087C27.0632 9.91248 26.7786 10.7723 26.7786 11.9702C26.7786 12.8358 26.8962 13.5379 27.1313 14.0767C27.5707 15.0913 28.3906 15.5985 29.591 15.5985Z" fill="#6D6D6D"/>
<path d="M47 0L38 14.5H56L47 0Z" fill="#11093F"/>
<path d="M44 2L35 16.5H53L44 2Z" fill="#5BC2CA"/>
<path d="M50 2L41 16.5H59L50 2Z" fill="#F2177F"/>
</svg>
